<svg xmlns="http://www.w3.org/2000/svg" viewBox="0 0 2016.85 1422.57"><defs><style>.cls-1{fill:#ff5f76;}.cls-2{fill:#ff385e;}.cls-3{fill:#fff;}.cls-4{fill:#231f20;}</style></defs><g id="Calque_2" data-name="Calque 2"><g id="Layer_1" data-name="Layer 1"><path class="cls-1" d="M1730.53,856.92c53-49,47-143.15-9.49-175.54,15.61-45.85-10.43-102.24-55.35-127.3-21.21-11.83,2.56-18.15,6.4-40.88,3.47-20.54,4.81-42.31,2-63.06-4.83-35.13-20.65-66.81-47.85-89.87a136.75,136.75,0,0,0-45.46-25.36c-12.55-4.11-34.68-2.36-42-12.74-8.37-11.78-9.31-37.69-14.72-51.54a242.93,242.93,0,0,0-27.29-51.29c-38.65-55-119.21-75.58-184.65-60.91-12.81-24.57-13.2-59.66-37.9-73.35-34.08-18.9-84.21-19.81-123-20-25.3-8.69-51.09,2.27-77.31,5.5-16-1.75-28.5-9.2-43.44-18.93C1008,37.07,986.19,23,959,25.15c-14.05-6.81-29-12-46-13.26-48.28-3.66-92.73,16.79-133.83,39.6-33,18.31-59.35,20.92-96.45,14.68-22.2-3.73-44.06-6.51-66.63-5.89C574.84,61.41,532.15,73,501.35,101.54c-7.37,6.83-12.61,15-19.34,22.29-15.57,16.82-25.83,18.6-47.4,16.58-21.17-2-41.07-3.29-62.16.9A197.52,197.52,0,0,0,275.21,192c-26.49,8.66-43.33,31.83-52.14,59.92-7.13,22.72-8.44,46.86-15.63,69.54-8.2,25.9-26.18,44.59-43.49,64.7C111.51,447.06,95.88,531,133.29,604.3c8.08,15.83,29.47,34.67,31.78,52.05,1.41,10.54-3.12,24.75-3.12,35.79a194,194,0,0,0,2.38,31.48c6.31,38.53,23.38,75.53,49.58,104.57,53.23,59,115.2,87.16,228.76,41.4,8.47,94.92,63.76,136.86,129.07,172,82.7,44.53,172,29.08,261.66,36.89,57.58,5,105.21,28.87,138.16,67.83,1.81,3,3.55,6,5.17,9,10.75,20.24,18.66,43.09,32.84,61.25,2.2,7,4.22,14.17,5.82,21.64a240.43,240.43,0,0,1,5.42,57.43c-.62,19.6-7.45,41-2,60.27,10.53,37.28,63,44.27,95.58,48.51,43.6,5.69,77.59-4,92.56-48.74,8.48-25.38-2.84-56.5-1.45-83.71,54.54,12.6,131,9.34,183.81-4.19,61.61-15.79,119.55-42.21,149.87-99.39,1.55-2.93,5-10.16,4.74-12.65,2.53-7.07,22.83-34.85,23.73-42.7,43.38-5.67,63.54-6.24,97.25-35.58,27.49-23.93,55.85-78,52.19-113.87,34.52-14.34,30.37-17.73,37.16-55.35C1759.51,879.2,1753.27,868.82,1730.53,856.92Z"/><path class="cls-2" d="M1744.59,876.79c-4-11.23-11.32-20.37-20-28.38-6.23-5.79-14.07-10.22-19.91-16.38-10.38-10.94-11.85-22-17.52-35-10.84-24.84-29.56-34.11-54-42.38-14.64-5-23.19-8-32.83-20.66-8.61-11.34-13.36-22.87-28.27-26.75-30.85-8-47.82,35-77.55,9.21-28.09-24.37-32.68-82.87-41.51-117.15-15.4-59.79-22.55-157.44-92-180.9-23.43-7.92-45.26-1.57-65.39,11-13.46,8.42-27.94,23.54-45.51,18.08-15.63-4.87-26.33-24.19-37.28-35.3-17.29-17.55-42-32.59-67.55-26.16-29.35,7.4-33,36.79-44.26,60.18-17.68,36.71-56.2,71.58-98.81,54.56-27.56-11-56.76-28.26-83.25-4.15-21.48,19.54-22.89,76.91-64.56,55.77C828,538.91,828,500.87,797.36,490.27c-26.27-9.09-52.17,8.16-65,30.39-17.73,30.64-11.75,72.93-51.33,86.53-78.93,27.12-80-86-124.43-121.91-8.8-7.11-20.24-4.2-27.43,3.37-11.41,12-17.47,25.78-21.51,41.65-4.47,17.57-4.26,41.67-16.28,56.06-26.89,32.21-96.85-9.11-125.71-21.85-86.08-38-172.14-100.27-173.18-203.93-.12-11.91-18-10.81-20-.12-.57,3.05-1,6.05-1.39,9.05a15.64,15.64,0,0,0-6.76,4.55C123,420.66,105,485,117.21,546.38c6.84,34.26,27.14,61.21,38.15,93.64,12,35.43,6.09,74.58,16.71,110.81,33.15,113,164.92,184.23,267.43,117.3,25.71,53.26,55,106.7,103.45,142.29,56.27,41.29,131.16,57.91,199.64,63,36.88,2.75,74.36-4.31,110.92.2,39.15,4.84,72.42,28.44,96.44,58.83,39.53,50,46.08,109.32,63.65,168.3,13.86,46.56,44.18,96.23,99,95.83,49.2-.36,95.09-42.23,94.89-92.39,0-11.61-5.44-23.46-4.8-34.79,1.07-19.07,8-16.49,24.6-13.94,6.24,1,14.69,5.22,20.33,7.19,34.23,11.94,69.51,23.6,106.28,21.48,58.51-3.38,121.94-43.41,157.6-85.64,19.93-23.61,44.28-82.23,49-83.81,19.52-6.51,48.56-9.49,76.56-23.54,21.57-10.83,41.21-24.64,53.65-45.83,8.76-14.91,11.55-31.33,17-47.48,6.07-17.88,15.89-33.63,24.48-50.33C1743.38,925.91,1753.14,901.06,1744.59,876.79Z"/><path class="cls-3" d="M1220.33,106.69c-7.39-1.32-15,6-13.65,13.49,2.74,15,11,28.29,14,43.21,3.08,15.45.11,31.28,2.9,46.63,1.78,9.84,12.17,14.28,20.51,8.8C1282.25,193.75,1264.64,114.62,1220.33,106.69Z"/><path class="cls-3" d="M1206.23,242.57a59.05,59.05,0,0,1-10.27,9.18c-3.65,2.77-7.24,5.91-11.39,7.93-8.5,4.15-6.11,18.65,4.33,16.91,7.78-1.3,15.22-4,20.82-9.74,5.2-5.35,7.89-11.58,9.64-18.75C1221.2,240.59,1210.53,237.35,1206.23,242.57Z"/><path class="cls-3" d="M309.44,218.68c-12.28-.19-20.66-.28-29.59,9.47-8.26,9-10.48,20.18-9.18,32.09.83,7.55,12.18,11.64,16.68,4.63,4.16-6.51,9.49-12.31,14-18.62,2.46-3.47,5.24-6.7,6.73-10.76,1.31-3.59,1.73-7,4.09-10.2C313.8,223,312.73,218.73,309.44,218.68Z"/><path class="cls-3" d="M1617.93,559.7c-4.41-14-15.81-31.44-32.08-32.06-8.46-.32-18,6.09-16.08,15.89,2,10,9,17.45,12.07,27.09a138.65,138.65,0,0,1,5.85,27.3c1,11,14.88,13.38,21.48,6C1620.73,590.86,1623.14,576.24,1617.93,559.7Z"/><path class="cls-3" d="M1606.56,637.44c-1.69-8.37-10.88-13.19-18.27-7.83a24.25,24.25,0,0,0-5.87,6.45c-.73,1.22-1.45,2.44-2.14,3.68l-.27.48c-.57.9-1.19,1.78-1.76,2.69-2.53,4-3.7,8-7.73,11.57-3.58,3.19-5.14,8-2.6,12.41,2.27,3.92,7.51,6.39,11.92,4.31,6.48-3.06,13.54-6.41,18.41-11.75C1603.33,653.89,1608.12,645.18,1606.56,637.44Z"/><path class="cls-4" d="M1550.64,1123.4a261.87,261.87,0,0,1-97.73,115.93c-46.29,29.88-101.33,43.27-156.22,39.36a255.44,255.44,0,0,1-94.08-25.34c-10.41-5.11-19.29,9.58-9.17,15.68a4.94,4.94,0,0,1-1.84-1.93,9,9,0,0,1,.47.78s-.17-.74.31,1a49.29,49.29,0,0,1,1.28,6.45,171.18,171.18,0,0,1,1,21.12c0,15.1-.7,30.25-2.13,45.28-2.57,27-18,66.49-53.43,62.36-27.06-3.16-59.67-7.1-86.68-16.81-12.55-4.51-17.2-18.26-19.56-31.06-3.37-18.25-2.41-37.09-3.25-55.56-.91-19.84-5.66-39-11.43-58a369.67,369.67,0,0,0-26.26-64.37c-20.56-39.06-50.64-77-90.17-98.2-17.8-9.54-37.34-13.88-57.48-13.82-22.77.07-45.41,3.83-68.24,4a540.57,540.57,0,0,1-145.84-18.44c-43.56-11.8-87.18-29.32-120.22-61-26.41-25.34-43.33-57.93-51.2-93.52a237,237,0,0,1-4.23-26.09c-1.23-11.5-19.41-11.63-18.17,0,4.08,38.19,15.52,75.65,38.48,106.88,27.1,36.85,65.71,61.23,108,77.45,48.06,18.45,99.62,28.09,150.87,31.6a517.59,517.59,0,0,0,74.51,0c22.26-1.69,44.26-5.17,66.15,1.16,21.43,6.2,40,20.45,55.79,35.84,17.36,17,31.54,36.79,43.24,58,21.1,38.28,37.16,82.86,38.35,126.85.85,31.16-2.33,80.6,33.06,94.69,15.23,6.07,32,8.77,48.08,11.58q22.62,4,45.43,6.83c39.81,5,65.7-33.06,71-68.51,2.12-14.24,2.86-28.75,3.31-43.12.45-14.61,1.18-30.36-2.26-44.69-1.17-4.89-3.26-9.75-7.74-12.45l-9.17,15.68A279.55,279.55,0,0,0,1372,1291.8c55-11.24,105.59-40.57,143.65-81.72a275,275,0,0,0,50.67-77.52c4.59-10.62-11-19.88-15.68-9.16Z"/><path class="cls-4" d="M856.43,1078.78c98.79-29.07,201.38-17,301.34-1.34,46.18,7.25,92.63,13.34,138.59,21.82,43.1,8,86,17,129.54,22.26,47.16,5.71,96.24,7.1,142.19-6.79,11.16-3.37,6.4-20.91-4.83-17.52-40.36,12.2-83.13,11.78-124.71,7.56-43.81-4.45-87-13.59-130.18-21.69-45.48-8.53-91.4-14.55-137.09-21.79-49.64-7.85-99.48-15.41-149.73-17.9-57.22-2.83-114.82,1.65-169.94,17.88-11.19,3.29-6.43,20.83,4.82,17.51Z"/><path class="cls-4" d="M965.49,1057.59c3.17,32.4,25.31,60.16,56.64,69.63l-5.42-13.34c-22.58,44-1.05,98.25,46.46,113.27a85.49,85.49,0,0,0,16.78,3.23c4.94.55,10.47.55,14.6,3.71,4.67,3.59,7.76,9.47,12.12,13.52a79.75,79.75,0,0,0,76.64,18.06c11.2-3.28,6.43-20.81-4.82-17.51a62.39,62.39,0,0,1-52.15-8c-8.38-5.57-13.07-14.25-20.75-20.36s-17.19-6.46-26.67-7.68c-41.91-5.39-65.75-51.64-46.53-89,2.71-5.28.41-11.58-5.43-13.35-23-7-40.94-28-43.3-52.11-1.13-11.53-19.31-11.64-18.17,0Z"/><path class="cls-4" d="M457.45,851.9C454,790.61,464,717.42,523.93,685.35c12.83-6.87,26.11-9.51,40.5-10.4,7.52-.47,14.89-1.38,21.75-4.7,7.12-3.45,12.89-9.11,18.82-14.23,21.2-18.31,47.43-29.9,74.87-35a165.19,165.19,0,0,1,82.41,5.85c14.31,4.82,26.19,13.36,39.85,19.35,15.17,6.66,28.39,1.58,40.2-8.9,24.68-21.94,49-42.84,79-57.32,28.27-13.64,59.68-20.43,91-17.2a125,125,0,0,1,47.79,14.75c15,8.35,28.62,22.43,46.15,10.66,7.08-4.75,13.07-11.36,19.55-16.86a189.93,189.93,0,0,1,21.74-16.24c15.1-9.5,32.23-16.06,50.16-11.78a9.21,9.21,0,0,0,11.5-8.76c1-34.14,27.21-63.77,60.5-70.12,11.47-2.18,6.61-19.69-4.83-17.51-41.26,7.86-72.65,45.91-73.84,87.63l11.5-8.76c-33.7-8-63.84,11-88.6,31.86-5.63,4.75-10.81,10.65-16.84,14.85-7.92,5.52-15-2.71-21.64-7a136.1,136.1,0,0,0-42.92-17.69c-66.38-15.09-130.73,14.53-180.79,56.51-6.22,5.22-12.23,10.66-18.15,16.21-5.08,4.76-11.11,11.43-18.74,10.8s-14.88-7.15-21.38-10.63a176.65,176.65,0,0,0-20.22-9.17c-27.54-10.57-58-13.57-87.14-9.8-28.54,3.68-56.46,13.72-80,30.4-12.58,8.9-23,23-39.16,24.42-15.65,1.39-29.79,2.85-44.37,9.25-30.13,13.21-53.73,39.6-66.87,69.42-16.12,36.6-18.67,77.15-16.46,116.61.65,11.62,18.82,11.7,18.16,0Z"/><path class="cls-4" d="M537,807.2c62.37,57.7,162.77,66.83,234.14,20.33l-7,.91c54.93,8.09,114.22,6.62,167.32-11,40.33-13.38,81.37-39.61,91.32-83.73l-16.6,2.17c40.11,54.33,118.55,52.87,178.9,44.83,60.71-8.08,118.72-30.59,165.56-70.67,30.4-26,54.71-58.5,73.46-93.71,5.5-10.31-10.18-19.5-15.68-9.17-29.8,56-73.89,102-131.65,129.09-49.38,23.14-106.79,32.41-161.09,29.85-34-1.61-72.47-10.48-93.81-39.39-4.27-5.78-14.73-6.15-16.6,2.17-6.73,29.81-30.53,49.63-57,62.39-32.22,15.53-69.4,21.29-104.8,23.1a384,384,0,0,1-59.9-1.58c-5.22-.55-10.56-1.79-15.79-2-4.63-.21-7.5,2.26-11.3,4.56a160,160,0,0,1-21,10.73c-28.59,11.89-60.53,15.58-91.17,11.6-35-4.53-68.5-19.32-94.42-43.31-8.57-7.93-21.45,4.89-12.85,12.85Z"/><path class="cls-4" d="M607.59,872.59c-21.94,17.64-27.21,52.09-12.43,75.81a9.26,9.26,0,0,0,12.43,3.26c4.15-2.43,5.86-8.24,3.26-12.42-.77-1.24-1.51-2.5-2.16-3.81-.27-.52-.51-1-.76-1.57.65,1.38-.14-.37-.25-.65a47.71,47.71,0,0,1-2.22-8c0,.06-.38-2.42-.24-1.38s-.11-1.18-.13-1.39c-.12-1.45-.17-2.91-.17-4.37s.06-2.63.16-3.94c.06-.72.13-1.45.22-2.18-.17,1.34,0,0,.13-.62a51.91,51.91,0,0,1,2.09-8c.19-.55.4-1.1.6-1.65.94-2.58-.39.78.26-.65s1.26-2.62,2-3.89,1.32-2.25,2.06-3.33c0,.05,1.35-1.92.81-1.2s.79-1,.92-1.12a46.7,46.7,0,0,1,6.28-6.06c3.83-3.08,3.21-9.64,0-12.84-3.78-3.78-9-3.09-12.84,0Z"/><path class="cls-4" d="M786.5,974.88c10.59,3.45,20.29-1.06,30.39-3.93,12.44-3.54,24.1,2,35.43,6.93,23.28,10.13,46,15.85,71.5,12.18,24.82-3.57,45.08-15.46,63.95-31.4,9.14-7.72,18.41-16.12,29.68-20.63,9.82-3.93,20.45-4.46,30.87-3.4,22,2.24,42.83,11.15,64.45,15.4,23.71,4.66,44.83,2.53,66.37-8.73,11.93-6.24,23.28-12.81,36.86-14.71,13.33-1.87,27,0,40,3,23.32,5.4,45.47,16.19,69.19,19.58,23.27,3.32,47.09,1.75,70.11-2.7,22.35-4.32,45.2-11.8,63.85-25.18,9.41-6.75.35-22.52-9.17-15.68-31.76,22.79-76.75,29.88-115,26.54-22.4-1.95-43.29-11.82-64.81-17.7-25-6.84-52.14-10.36-76.84-.45-11.83,4.75-22.39,12.26-34.31,16.74-10,3.74-20.39,4.42-30.92,3.4-21.68-2.11-42.24-10.76-63.48-15.15-21.42-4.42-43.28-4.44-62.82,6.56-20.87,11.74-35.72,31.56-58.34,40.63-25.85,10.37-53.12,8.46-78.38-2.41-12.41-5.35-25.77-12.45-39.62-12.48-6,0-11.94,1.64-17.6,3.48-5.33,1.73-10.93,4.42-16.52,2.6-11.14-3.63-15.91,13.9-4.83,17.52Z"/><path class="cls-4" d="M390.3,492.3c47.76,8.83,84.11-28.52,109.86-63.59,13.28-18.08,26-37,43.26-51.58,17.63-14.87,40.05-22.22,62.77-24.33,26.83-2.49,53.84.73,80.43,4.21,4.9.64,9-4.64,9.08-9.09,0-5.43-4.24-8.44-9.08-9.08-44.78-5.86-93.81-11-135.25,11.11-40.57,21.66-58.15,65.58-89.48,96.79-17.34,17.27-41.19,32.77-66.76,28-11.43-2.11-16.33,15.39-4.83,17.52Z"/><path class="cls-4" d="M711.87,161.22c22.67-10.28,50.06,1.22,58.28,24.73,8.92,25.48-9.11,49.49-22.63,69.63-26.27,39.16-57.17,80.57-51.8,130.49,2.58,24,12.76,45.68,32.59,60.09,9.47,6.88,18.55-8.88,9.17-15.69-17.53-12.73-24.27-35-24.19-55.81.1-25.09,10.18-47.86,22.9-69,24.12-40.14,78.59-93.06,42.56-141.74-17.73-23.95-49.4-30.44-76-18.35-10.63,4.82-1.4,20.48,9.17,15.68Z"/><path class="cls-4" d="M910.36,100.57c26.33,18.27,42.54,49.53,42.91,81.48.14,11.68,18.3,11.71,18.16,0-.45-38.67-20.21-75.17-51.91-97.16-4-2.8-10.08-.75-12.42,3.26-2.64,4.51-.79,9.62,3.26,12.42Z"/><path class="cls-4" d="M1023.64,154.2c-41.67-4.74-76.54,35-88.73,71-3.13,9.23-5,19.37-4.09,29.13.48,4.88,3.83,9.08,9.08,9.08,4.54,0,9.57-4.17,9.08-9.08a49.25,49.25,0,0,1-.2-7c.05-1.23.15-2.45.28-3.68.22-2-.12.5.21-1.36a83.21,83.21,0,0,1,4-14.79,101.8,101.8,0,0,1,16.05-27.73c13.73-16.83,32.62-29.85,54.28-27.38,4.88.55,9.08-4.57,9.08-9.09,0-5.37-4.18-8.52-9.08-9.08Z"/><path class="cls-4" d="M934.94,228.44c-32,11.74-55.38,37.74-68,69-15.14,37.5-12.16,79.76-3,118.31,2.71,11.37,20.23,6.56,17.52-4.83-8.13-34.19-10.87-70.85,1.38-104.45,9.7-26.61,29.91-50.62,56.93-60.51,10.89-4,6.18-21.55-4.83-17.52Z"/><path class="cls-4" d="M348.71,308.18c4.58-25.62,14.26-50.3,31.24-70.31,15.18-17.88,34.58-31.32,55.95-40.79,23.39-10.35,50-16.94,75.64-16.58a147.85,147.85,0,0,1,49.14,9.21c7.25,2.68,14.23,7.06,22.2,6.53,7.47-.5,12.46-5.44,16.55-11.23,17.75-25.11,49.43-25.45,77.56-24.72,11.69.3,11.69-17.86,0-18.17-26.49-.68-56.55,0-78.44,17a61.76,61.76,0,0,0-13.06,14.12c-2.23,3.23-2.64,4.8-6.38,4.44-4.52-.44-10.6-4.44-14.87-6a163.66,163.66,0,0,0-50-9.33C463,160.78,405.89,182.75,371,220.69c-21.24,23.06-34.26,51.95-39.76,82.66-2,11.43,15.46,16.34,17.52,4.83Z"/><path class="cls-4" d="M1035.3,159.9c4.89-28.41,24.11-49.79,49.73-62,20.18-9.58,47.8-14.69,68.85-5.47,10.61,4.64,19.87-11,9.17-15.68-27.39-12-59.32-7.34-85.84,4.84-30,13.77-53.74,40.41-59.43,73.45-2,11.43,15.53,16.34,17.52,4.82Z"/><path class="cls-4" d="M889,441.35c21.73.36,43.21,11.52,55.24,29.81A68.24,68.24,0,0,1,948.37,538c-5.17,10.44,10.5,19.66,15.68,9.17,13.23-26.75,12.49-59.94-4.11-85.16A87.18,87.18,0,0,0,889,423.19c-11.69-.19-11.69,18,0,18.16Z"/><path class="cls-4" d="M743.82,465.33c28.5,13.72,34.78,49.86,12.37,72.36-9.81,9.85-21.41,18.87-24.1,33.36-2.57,13.87,2.27,28.58,13.15,37.7,8.91,7.46,21.82-5.32,12.85-12.85-11.33-9.49-10.55-23.61-.87-33.94,10.91-11.63,22.1-20.64,27.64-36.22,10.48-29.43-4-62.67-31.87-76.1-10.49-5-19.71,10.61-9.17,15.69Z"/><path class="cls-4" d="M530.66,503.7c11.46,5.58,23.44,11.53,32.09,21.14,9.86,11,7.26,24.56,9.13,38.08a87.27,87.27,0,0,0,45,64.26c10.32,5.49,19.5-10.19,9.17-15.68a69.59,69.59,0,0,1-27.91-26.87c-7.05-12.23-8.63-24.62-9.21-38.46-.6-14.28-5.5-26.57-15.77-36.65-9.51-9.34-21.51-15.72-33.38-21.51-10.46-5.1-19.68,10.56-9.17,15.69Z"/><path class="cls-4" d="M348.89,481.72c-48-7.75-99.55-4.26-138.21,28.23-32.43,27.25-46.15,73-26.71,112,10,20,28,31.52,48.22,39.55,19.22,7.62,43.21,13.24,54.84,32.15,6.44,10.47,3.72,21.23,2,32.65a87.53,87.53,0,0,0,1,32.54c4.83,21.57,17.82,41.19,33.92,56.06a169.82,169.82,0,0,0,51.09,32.28c19.51,7.74,41.15,8.3,61.86,8.35,11.69,0,11.7-18.14,0-18.17-16.91,0-34.22-.25-50.49-5.37-13.92-4.37-26.75-12.7-38.63-21-16.07-11.26-30-27.5-37-46a71.45,71.45,0,0,1-4.76-27.85c.41-11.13,4.33-21.91,3.18-33.13-2-19.32-16.21-34.05-32.34-43.42-18.22-10.58-39.74-14-57.52-25.4-33-21.2-32.68-68.35-10.62-97.16,31.47-41.11,87.78-46.4,135.28-38.72,11.43,1.85,16.36-15.65,4.83-17.52Z"/><path class="cls-4" d="M259.37,486.8c-8.36-40-14.92-86.76,8.89-123,19.75-30,59.09-45.23,93.92-37.19,11.38,2.62,16.23-14.89,4.83-17.52-41.83-9.65-86.73,7.37-112,42-29.44,40.37-22.74,94.68-13.16,140.48,2.39,11.43,19.9,6.59,17.51-4.83Z"/><path class="cls-4" d="M1298.36,165.53c14.06,55.05-11.46,114-55,148.61-22.79,18.08-50.85,25.26-75.76,39.49-26.33,15.05-45.07,41-41.82,72.46,3.61,34.94,32.9,61.18,67.82,62.34,11.69.39,11.68-17.78,0-18.17a51.52,51.52,0,0,1-49.82-55.71c2.57-30.43,30-45,55-55.94,25.2-11,48.66-22.22,68.71-41.55a178.07,178.07,0,0,0,43.91-68.23,151.44,151.44,0,0,0,4.53-88.13c-2.89-11.32-20.41-6.52-17.51,4.83Z"/><path class="cls-4" d="M1301.9,276c59.46-27.16,132.55-4.82,166,51.27,15.79,26.48,21.51,56.53,17.89,87-3.8,31.88-14,63.13-25.84,92.86A653,653,0,0,1,1418,593.25c-5.86,10.14,9.83,19.3,15.69,9.17,32.78-56.65,61.74-120.46,70-185.9,8.6-68.44-29.46-136.5-94.88-160.89-37.56-14-79.75-11.93-116.07,4.66-10.61,4.85-1.39,20.51,9.17,15.68Z"/><path class="cls-4" d="M1469.29,914.52c59.17-37.83,89.69-112.16,74.27-180.65l-8.76,11.49c33.61-.57,66.44-14.23,90.08-38.25,24.53-24.93,36.89-59.37,39.4-93.8,4.65-63.6-28.08-133.69-92.73-152.57-33.56-9.81-70.2-4.4-97.75,17.54-9.14,7.28,3.79,20.06,12.85,12.84,20.45-16.29,48.6-20.26,73.66-14.54,26.71,6.11,49.06,22.72,63.86,45.65,30.61,47.41,31.18,117.75-4.16,163-20.34,26-52.3,41.41-85.21,42a9.2,9.2,0,0,0-8.76,11.49c13.59,60.34-13.82,126.84-65.91,160.15-9.82,6.28-.72,22,9.16,15.68Z"/><path class="cls-4" d="M1542.19,753.52a126.57,126.57,0,0,1,77.57,58c19.06,32,23.2,71.08,14.27,107-2.83,11.34,14.69,16.18,17.51,4.83,10.09-40.53,5.43-84.79-16.1-121C1616,769.76,1583.9,745.23,1547,736c-11.34-2.84-16.18,14.68-4.83,17.51Z"/><path class="cls-4" d="M1642,853.76A136.33,136.33,0,0,0,1720.28,864c4.84-.79,7.54-6.81,6.34-11.17-1.41-5.15-6.31-7.14-11.17-6.35a114.26,114.26,0,0,1-64.33-8.39c-4.48-2-9.77-1.29-12.43,3.26-2.27,3.88-1.24,10.41,3.26,12.43Z"/><path class="cls-4" d="M1429.39,1116c60.11,1.48,102.08-55.13,99.53-112.17l-11.49,8.76c69.59,24.25,150.94,5.11,202.78-47.13,8.24-8.31-4.59-21.16-12.84-12.85-47.57,47.94-121.43,64.65-185.11,42.46-5.45-1.9-11.75,3.13-11.5,8.76,2.11,47.3-30.87,95.25-81.37,94-11.69-.29-11.68,17.87,0,18.16Z"/><path class="cls-4" d="M714.93,922.23c18.62,26.74,46.9,46.09,78.89,52.82,4.8,1,9.82-1.41,11.18-6.35,1.24-4.51-1.52-10.16-6.35-11.17-27.26-5.73-52.06-21.52-68-44.46-2.8-4-8-5.88-12.42-3.26-4,2.32-6.08,8.38-3.26,12.42Z"/><path class="cls-4" d="M753.54,952.16c-25.3,20.33-36,56.42-26.75,87.39,3.35,11.17,20.88,6.42,17.52-4.82-7.52-25.09,1.27-53,22.08-69.73,3.82-3.07,3.2-9.64,0-12.84-3.78-3.78-9-3.08-12.85,0Z"/><path class="cls-4" d="M601.81,843.94a83.81,83.81,0,0,0-5.13,37,9.75,9.75,0,0,0,2.66,6.42,9.18,9.18,0,0,0,6.42,2.66c4.56-.2,9.54-4,9.09-9.08a78.83,78.83,0,0,1-.31-9c0-1.28.1-2.56.2-3.84.06-.85.14-1.7.23-2.55.07-.65.59-2.5,0-.13.67-2.68.94-5.47,1.62-8.16a80,80,0,0,1,2.74-8.54c1.7-4.44-1.88-10.15-6.34-11.17-5.19-1.18-9.35,1.58-11.18,6.34Z"/><path class="cls-4" d="M177.42,645.88c-52.95,48.64-24.12,130.47,14,178.48,36.31,45.8,92.64,80,152.2,80.27,37.82.16,72.67-14.45,102.17-37.45C455,860,442,847.23,432.9,854.34c-23.19,18.07-51.11,30.23-80.66,31.89C325.9,887.72,299.59,881.56,276,870c-46.83-23-85.78-65-102.37-114.76-10.91-32.72-10.37-71.65,16.67-96.49,8.62-7.92-4.25-20.74-12.85-12.84Z"/><path class="cls-4" d="M176.59,652.83C141.1,616.07,121,565.67,122.18,514.51c1.12-49.68,22.75-98.48,58.42-133,8.81-8.53,18.74-16.16,25.26-26.75,7.15-11.6,7.86-25.28,10.66-38.27a209.35,209.35,0,0,1,27.31-67,205.62,205.62,0,0,1,116.76-88.19,210.17,210.17,0,0,1,77.56-7.51c13.42,1.22,27,4.71,40-.85,11.19-4.8,18.61-14.55,26.9-23C536.86,97.38,581.63,78.22,627,75.7a180.35,180.35,0,0,1,67.74,8.9c12.85,4.33,24.89,9,38.16,3.39,10.79-4.57,18.76-13.55,27.58-21,33.09-27.81,75.81-43.95,118.67-47.85,43.54-3.95,88.4,3.7,127.22,24.16A205.67,205.67,0,0,1,1034.1,60.9c9,6.8,17.13,16,28.19,19.47,11.45,3.61,22.47-1.47,33.67-3.47a120,120,0,0,1,28.64-1.75c6.91.45,17.15,1.55,21.55,7.76,6.69,9.47,22.45.4,15.68-9.17C1150,57,1126.77,55.72,1108,57.21c-11.26.89-21.61,3.89-32.62,5.91-12.11,2.22-21.62-9.92-30.4-16.61-36.59-27.91-81.82-43-127.53-46-45.37-2.95-91.84,6.5-132,28a212.82,212.82,0,0,0-28.54,18.3c-9.27,7-17.38,16.39-27.27,22.51-12.15,7.54-25.29-1-37.54-4.53A196.9,196.9,0,0,0,657,58.17a207.32,207.32,0,0,0-136.6,35.34,193.76,193.76,0,0,0-28.17,23.59c-8.87,9.06-16.36,20.57-30.24,20.92s-27.6-3.12-41.44-3.23a231.58,231.58,0,0,0-40.12,3.38c-51.78,8.75-100.1,36.15-133.65,76.6a233.23,233.23,0,0,0-38.34,65.47,211.37,211.37,0,0,0-10.32,36c-2.72,14.2-4.14,26.78-14.59,37.61-8.94,9.26-18.9,17.33-27.36,27.09a214,214,0,0,0-22.59,31.25,209,209,0,0,0,5.67,223,215.85,215.85,0,0,0,24.54,30.46c8.14,8.43,21-4.43,12.85-12.84Z"/><path class="cls-4" d="M409.19,328.11a181.49,181.49,0,0,1,104.7,39.26c3.83,3.06,9.11,3.73,12.85,0,3.18-3.18,3.85-9.76,0-12.85a202.29,202.29,0,0,0-117.55-44.58c-11.69-.53-11.66,17.64,0,18.17Z"/><path class="cls-4" d="M449.26,271.35a89.89,89.89,0,0,0,7,55.65c2,4.31,8.56,5.75,12.43,3.26,4.44-2.87,5.42-7.81,3.25-12.43-.13-.29-1.47-3.39-.81-1.76-.33-.8-.64-1.6-.94-2.41q-1-2.82-1.86-5.72t-1.42-5.84c-.17-.85-.32-1.69-.47-2.54-.09-.57-.18-1.13-.26-1.7.11.85.12.95,0,.28a93.23,93.23,0,0,1-.52-11.58c.06-2,.22-4,.4-6,.26-2.79-.32,1.77.12-1,.18-1.13.38-2.26.59-3.38.9-4.65-1.3-10-6.34-11.18-4.49-1-10.21,1.36-11.17,6.35Z"/><path class="cls-4" d="M1616.38,714.94c25.63-2.7,51.57,5.43,70.48,23.1,8.53,8,21.41-4.85,12.84-12.85-22.17-20.72-53-31.61-83.32-28.42-4.87.52-9.08,3.81-9.08,9.09,0,4.51,4.17,9.6,9.08,9.08Z"/><path class="cls-4" d="M1683.33,725.23A304.14,304.14,0,0,1,1724,685.92c3.73-3,3.34-9.78,0-12.84-4-3.64-8.87-3.19-12.84,0a302.85,302.85,0,0,0-40.68,39.3c-3.09,3.6-3.8,9.35,0,12.85,3.4,3.12,9.54,3.85,12.84,0Z"/><path class="cls-4" d="M774.61,60.14c40.45-14,83.74-1.81,118.7,20.55,9.88,6.32,19-9.39,9.17-15.68-38.75-24.79-88-37.89-132.7-22.38-11,3.8-6.26,21.35,4.83,17.51Z"/><path class="cls-4" d="M1189.59,417.82c-3.22,27,1.64,54.17,13,78.72,2.07,4.45,8.48,5.57,12.43,3.26,4.56-2.67,5.33-8,3.26-12.43-10.06-21.69-13.38-45.88-10.56-69.55.59-4.87-4.59-9.08-9.08-9.08-5.39,0-8.5,4.19-9.08,9.08Z"/><path class="cls-4" d="M1160.79,90.28c53.13-33.12,128.21,8.91,136.86,68.35,1.68,11.52,19.19,6.62,17.52-4.83-10.34-71.06-101.31-118-163.55-79.21-9.9,6.17-.79,21.89,9.17,15.69Z"/><path class="cls-4" d="M1308.77,167.75A166.67,166.67,0,0,1,1430,180.16c36.9,19.19,64.84,52.54,78.14,91.89a166.9,166.9,0,0,1,8.14,68.6c-.58,6.51,6.24,9.55,11.5,8.76,46.31-6.9,93.81,19.33,118.29,58.11,28.14,44.59,27.3,101.52,8.13,149.3-1.38,3.44.87,8.67,4.18,10.26,40.88,19.65,63.35,68.6,50.74,112.35-1.5,5.2,2.82,12.12,8.76,11.5,37.34-3.94,40.69,50,42.25,75.34,1.8,29.42-3.57,68.69-35.72,80.29-7.55,2.73-8.79,12.05-2.17,16.6,16.64,11.45,26,33.22,21.74,53.16-4.22,19.65-19.91,35-39.21,39.93-5.2,1.31-9,8.61-5.43,13.34,24.85,33.33-9.83,70.92-34.31,91.95-28.24,24.24-66.11,44.43-104.24,35-11.35-2.8-16.19,14.71-4.83,17.51,45.75,11.3,90.15-11.83,123.81-41.34,16.46-14.43,32.26-31.08,40.61-51.63,7.93-19.51,7.56-43.35-5.35-60.68l-5.43,13.34c25.79-6.51,47.5-28.24,52.31-54.71,5-27.77-7.46-55.73-30.5-71.57l-2.17,16.6c41.56-15,51.75-61.18,48.86-100.69-1.55-21.07-3.25-44.27-13.59-63.15-9.1-16.6-27.09-29.54-46.63-27.48l8.75,11.5c14.71-51-11.07-109.79-59.09-132.86q2.09,5.13,4.18,10.25c16.86-42,20.06-91,4.28-133.86a150.4,150.4,0,0,0-85-88.1,130,130,0,0,0-68-7.79l11.49,8.75c4-45.33-9.9-91.57-37.61-127.6-28.12-36.56-70.08-60.72-115.68-67.47a184.07,184.07,0,0,0-77.19,4.66c-11.24,3.16-6.46,20.69,4.83,17.51Z"/><path class="cls-1" d="M228.76,975.27c-56.17,15.51-68.74,28.09-84.25,84.26-15.51-56.17-28.09-68.75-84.25-84.26C116.42,959.76,129,947.19,144.51,891,160,947.19,172.59,959.76,228.76,975.27Z"/><path class="cls-1" d="M2016.85,570.53c-56.17,15.51-68.74,28.09-84.25,84.26-15.51-56.17-28.09-68.75-84.26-84.26,56.17-15.51,68.75-28.08,84.26-84.25C1948.11,542.45,1960.68,555,2016.85,570.53Z"/><path class="cls-1" d="M90.73,756.65C60.49,765,53.72,771.77,45.37,802,37,771.77,30.24,765,0,756.65c30.24-8.35,37-15.12,45.37-45.37C53.72,741.53,60.49,748.3,90.73,756.65Z"/><path class="cls-1" d="M421.76,1033c-30.24,8.36-37,15.13-45.37,45.37-8.35-30.24-15.12-37-45.36-45.37,30.24-8.35,37-15.12,45.36-45.36C384.75,1017.87,391.52,1024.64,421.76,1033Z"/><path class="cls-1" d="M1817.9,421.64c-30.24,8.35-37,15.12-45.36,45.37-8.36-30.25-15.13-37-45.37-45.37,30.24-8.35,37-15.12,45.37-45.37C1780.89,406.52,1787.66,413.29,1817.9,421.64Z"/><path class="cls-1" d="M1904.22,775.26c-30.25,8.35-37,15.12-45.37,45.37-8.35-30.25-15.12-37-45.37-45.37,30.25-8.35,37-15.12,45.37-45.36C1867.2,760.14,1874,766.91,1904.22,775.26Z"/></g></g></svg>