<svg xmlns="http://www.w3.org/2000/svg" viewBox="0 0 322.9 255.6"><defs><style>.cls-1,.cls-3{fill:none;stroke:#000;stroke-width:2px;}.cls-2{fill:#dae1e7;}.cls-3{stroke-dasharray:8 8;}</style></defs><g id="Calque_2" data-name="Calque 2"><g id="Calque_1-2" data-name="Calque 1"><path class="cls-1" d="M289.45,222.63v-56"/><path class="cls-2" d="M289.45,94.63l-128-32v64Z"/><path class="cls-1" d="M161.45,254.63v-128m0,128-128-32v-56m128,88,128-32m-128-96-128-32m128,32-32,64c-50.08-12.51-77.91-19.49-128-32l32-64m128,32,32,64,128-32-32-64m-128,32,128-32m-128,32v-64m-128,32,128-32m0,0,128,32"/><path class="cls-1" d="M214.17,20.21c-.38,1-1.62,1.89-3.81,2.18a17.12,17.12,0,0,1-7.77-1.1A17.05,17.05,0,0,1,196,17.1c-1.49-1.64-1.88-3.1-1.5-4.13s1.62-1.89,3.81-2.17a18.69,18.69,0,0,1,14.4,5.29C214.16,17.72,214.55,19.18,214.17,20.21Z"/><path class="cls-1" d="M207.48,5.94a6.67,6.67,0,0,1-.94,3.71,2.48,2.48,0,0,1-2,1.35,2.52,2.52,0,0,1-2-1.28,6.69,6.69,0,0,1-1.07-3.66,6.75,6.75,0,0,1,.93-3.71,2.17,2.17,0,0,1,4-.08A6.76,6.76,0,0,1,207.48,5.94Z"/><path class="cls-1" d="M213.79,9.61A6.86,6.86,0,0,1,211,12.27a2.52,2.52,0,0,1-2.39.11,2.5,2.5,0,0,1-1-2.15,6.67,6.67,0,0,1,1-3.68,6.73,6.73,0,0,1,2.75-2.66,2.5,2.5,0,0,1,2.38-.11,2.5,2.5,0,0,1,1.05,2.15A6.78,6.78,0,0,1,213.79,9.61Z"/><path class="cls-3" d="M151.7,120.63c-22.25-37.5,30.29-58.4,56.75-63,28.48-5.24,41-31.5,8.5-37.5"/></g></g></svg>