<svg xmlns="http://www.w3.org/2000/svg" viewBox="0 0 559.64 231.51"><defs><style>.cls-1{fill:#2a3d8e;}.cls-2{fill:#29a9e0;}.cls-3{fill:#f9ad42;}</style></defs><g id="Calque_2" data-name="Calque 2"><g id="Layer_2" data-name="Layer 2"><path class="cls-1" d="M0,181.93l56.3,49.58s104.2-68.06,226-4.2C282.34,227.31,189.91,121.43,0,181.93Z"/><path class="cls-2" d="M24,80.35l37.65,64.89S182,113.78,277.3,213C277.3,213,223.26,83.28,24,80.35Z"/><path class="cls-3" d="M82.75,0l15,68.68s116.46,6.37,173.08,122.19C270.85,190.87,259.75,59.63,82.75,0Z"/><path class="cls-1" d="M559.64,181.93l-56.3,49.58s-104.2-68.06-226-4.2C277.3,227.31,369.73,121.43,559.64,181.93Z"/><path class="cls-2" d="M535.66,80.35,498,145.24S377.6,113.78,282.34,213C282.34,213,336.37,83.28,535.66,80.35Z"/><path class="cls-3" d="M476.89,0l-15,68.68S345.41,75.05,288.79,190.87C288.79,190.87,299.89,59.63,476.89,0Z"/></g></g></svg>