<svg xmlns="http://www.w3.org/2000/svg" viewBox="0 0 195 183"><defs><style>.cls-1{fill:#fdfdfd;}.cls-2{fill:#030303;}.cls-3{fill:#070707;}.cls-4{fill:#671619;}.cls-5{fill:#101010;}.cls-6{fill:#eaeaea;}</style></defs><g id="Calque_2" data-name="Calque 2"><g id="Calque_1-2" data-name="Calque 1"><path class="cls-1" d="M194.9,134c0,15.15-.1,30.3.09,45.45,0,3-.61,3.59-3.59,3.58q-95.7-.17-191.4-.08V.1Q95.45.1,190.9,0c3.42,0,4.12.67,4.1,4.09-.17,29.64-.1,59.28-.1,88.92-1.9.53-3-1-4.36-1.76-9.73-5.45-19.43-11-29.14-16.46C147.19,66.06,132.63,57.94,118,50c-10.81-7.31-21.6-14-35.31-6.41A10.22,10.22,0,0,1,73,43.31c-6.58-3.63-6.62-3.54-10.42,3.06a18.49,18.49,0,0,1-1.8,3c-1.83,2.1-1.3,3.46,1.14,4.31,7.24,2.52,9.34,8.51,10,15.21.71,7.5,4.65,12.53,11,16.17,30.79,17.74,61.65,35.37,92.26,53.42,6,3.53,10.56,2.56,15.46-1.16C192,136.19,193.46,135.07,194.9,134ZM43.17,110.89c0-4.51-1.09-9.7-1.84-15-.42-3-1.65-3.85-4.09-2.73a19.41,19.41,0,0,1-16.82,0c-2.08-.92-3.48-.46-3.94,2.38-1.19,7.39-2.36,14.77-1.61,22.27.63,6.36,3.48,11.33,9.48,14.16,1.12.53,2.88.63,2.68,2.42-.83,7.51,2,15.26-1.43,22.58a1.11,1.11,0,0,0,.81,1.71c2.52.62,4.51.67,4.37-3.07-.26-6.47-.1-13-.15-19.43,0-1.5-.21-3,1.6-3.72C41.78,128.68,43.43,120.7,43.17,110.89ZM40.51,24.06c-4,0-7.73,3.49-8.58,8.16-.59,3.26.33,6.9,3.33,7.44,4.52.82,7.89,3.3,11.5,5.47,11,6.61,11,6.62,16.46-5.14.88-1.92.32-2.53-1.17-3.47-6.24-3.94-13.49-6.27-18.78-11.71C42.45,24,41.5,24.08,40.51,24.06Zm-15,62.45a18.76,18.76,0,0,0,.31,1.89c.38,1.59.62,3.52,2.66,3.69,2.44.21,2.82-2.06,3.31-3.69A12.92,12.92,0,0,0,31.53,82c-1.58-7.25-4.38-14.35-.64-21.93,1.89-3.82,3.3-7.91,5.22-11.76.53-1.07,1.61-3.32.25-3.34-3.57,0-5-3.3-7.89-4.24-5.29-1.7-5.06,3.63-7.6,5.35a2.29,2.29,0,0,0-.3,3.74c8.33,6.11,7.5,14.7,6.59,23.32C26.71,77.42,26.09,81.68,25.47,86.51Z"/><path class="cls-2" d="M194.9,134c-1.44,1.1-2.86,2.22-4.31,3.32-4.9,3.72-9.48,4.69-15.46,1.16-30.61-18-61.47-35.68-92.26-53.42-6.31-3.64-10.25-8.67-11-16.17-.64-6.7-2.74-12.69-10-15.21-2.44-.85-3-2.21-1.14-4.31a18.49,18.49,0,0,0,1.8-3c3.8-6.6,3.84-6.69,10.42-3.06a10.22,10.22,0,0,0,9.63.31c13.71-7.55,24.5-.9,35.31,6.41l-.1,5.3c-6.85-3.08-12.72-8-19.88-10.5-.19-1.19-.55-2.46-2-2.33s-.9,1.48-1,2.37c-2,2.64,1.2,2.57,2,3,8.65,5.2,17.44,10.17,26.2,15.2q19.38,11.16,38.8,22.28c1.06.61,2.23,2.18,3.55,0s-.41-2.55-1.57-3.32c-1.5-1-3-1.92-4.57-2.88.55-1.53.4-3.39,2.08-4.38,9.71,5.49,19.41,11,29.14,16.46C191.9,92,193,93.54,194.9,93Z"/><path class="cls-3" d="M43.17,110.89c.26,9.81-1.39,17.79-10.94,21.61-1.81.72-1.62,2.22-1.6,3.72.05,6.48-.11,13,.15,19.43.14,3.74-1.85,3.69-4.37,3.07A1.11,1.11,0,0,1,25.6,157c3.41-7.32.6-15.07,1.43-22.58.2-1.79-1.56-1.89-2.68-2.42-6-2.83-8.85-7.8-9.48-14.16-.75-7.5.42-14.88,1.61-22.27.46-2.84,1.86-3.3,3.94-2.38a19.41,19.41,0,0,0,16.82,0c2.44-1.12,3.67-.29,4.09,2.73C42.08,101.19,43.19,106.38,43.17,110.89Z"/><path class="cls-4" d="M40.51,24.06c1,0,1.94-.1,2.76.75,5.29,5.44,12.54,7.77,18.78,11.71,1.49.94,2,1.55,1.17,3.47-5.43,11.76-5.46,11.75-16.46,5.14-3.61-2.17-7-4.65-11.5-5.47-3-.54-3.92-4.18-3.33-7.44C32.78,27.55,36.54,24,40.51,24.06Z"/><path class="cls-4" d="M25.47,86.51c.62-4.83,1.24-9.09,1.69-13.38.91-8.62,1.74-17.21-6.59-23.32a2.29,2.29,0,0,1,.3-3.74c2.54-1.72,2.31-7,7.6-5.35,2.93.94,4.32,4.2,7.89,4.24,1.36,0,.28,2.27-.25,3.34-1.92,3.85-3.33,7.94-5.22,11.76C27.15,67.64,30,74.74,31.53,82a12.92,12.92,0,0,1,.22,6.41c-.49,1.63-.87,3.9-3.31,3.69-2-.17-2.28-2.1-2.66-3.69A18.76,18.76,0,0,1,25.47,86.51Z"/><path class="cls-5" d="M117.85,55.33,118,50c14.68,7.91,29.24,16,43.45,24.76-1.68,1-1.53,2.85-2.08,4.38C145.23,71.69,131.49,63.6,117.85,55.33Z"/><path class="cls-6" d="M117.85,55.33c13.64,8.27,27.38,16.36,41.47,23.84,1.53,1,3.07,1.89,4.57,2.88,1.16.77,2.85,1.19,1.57,3.32s-2.49.62-3.55,0q-19.44-11.09-38.8-22.28c-8.76-5-17.55-10-26.2-15.2-.77-.46-4-.39-2-3l3,0C105.13,47.31,111,52.25,117.85,55.33Z"/><path class="cls-5" d="M98,44.83l-3,0c.15-.89-.3-2.26,1-2.37S97.78,43.64,98,44.83Z"/></g></g></svg>